PathFileType	4	(X/Y/Z)	D:\TRACE\v60_Jaco2_6-2-23\ArmBodyNoDRS_DMP_1-v60.trc
DataRate	CameraRate	NumFrames	NumMarkers	Units	OrigDataRate	OrigDataStartFrame	OrigNumFrames
100.00	100.00	      38	9	mm	100.00	1994	      5315
Frame#	Time	front left toe			Front right toe			aft left toe			aft right toe			Arm			FL body			FR body			AL Body			AR Body			
		X1	Y1	Z1	X2	Y2	Z2	X3	Y3	Z3	X4	Y4	Z4	X5	Y5	Z5	X6	Y6	Z6	X7	Y7	Z7	X8	Y8	Z8	X9	Y9	Z9	

1994	19.930	-90.31330	20.47970	-221.43535	301.97372	114.43813	-238.35330	-58.87714	112.98774	393.86203	285.40057	15.85470	400.07455	90.43915	1169.05249	-638.61676	28.03566	574.19958	-366.03003	187.43849	572.62305	-367.81058	46.84058	567.74426	578.48889	200.55930	553.82623	577.97247	
1995	19.940	-90.23917	20.41443	-221.23260	302.74582	107.21629	-239.80280	-57.19116	105.13392	393.60803	285.59869	15.79721	400.04221	90.86873	1168.90222	-639.27576	28.16129	574.14331	-366.44064	187.55244	572.66919	-368.57813	48.22590	567.76117	578.05011	201.73804	553.76978	577.42554	
1996	19.950	-90.20879	20.42853	-221.17137	304.33868	99.58962	-241.15860	-55.38524	97.30715	393.01031	285.73825	15.80144	400.02502	91.36733	1168.67334	-639.70148	28.01533	574.27319	-366.74356	187.22995	572.09979	-368.32349	49.83464	567.72076	577.38959	203.10425	553.81030	576.62585	
1997	19.960	-90.17325	20.51767	-221.15717	305.62296	91.89627	-242.43080	-52.97425	89.34084	392.28629	285.98602	15.82674	400.02606	92.03181	1168.50720	-640.26776	28.16316	574.44153	-367.21884	187.16406	572.29602	-369.24701	50.66407	567.76013	577.09406	204.52602	553.76514	576.18945	
1998	19.970	-90.21925	20.56013	-221.25325	306.30045	84.23575	-243.83490	-50.60923	81.03216	390.77933	286.01828	15.77040	399.96902	92.16181	1168.50269	-641.11554	28.81862	574.25458	-367.51910	187.89331	572.49219	-370.45587	52.49817	567.80603	576.38501	205.63229	553.79626	575.40350	
1999	19.980	-90.20326	20.57064	-221.23109	306.47000	76.33090	-245.27235	-47.91024	72.52809	389.60837	286.13797	15.77862	399.90274	92.23885	1168.61621	-641.80176	29.16556	574.09918	-368.06451	188.43810	572.49408	-370.98547	53.21290	568.06940	575.88287	206.94026	554.01508	574.86298	
2000	19.990	-90.07182	20.56859	-221.02898	307.16504	68.38370	-246.33932	-46.43401	64.31570	388.09256	286.25375	15.75917	399.86633	92.16010	1168.60022	-642.31055	29.19067	574.17456	-368.54727	188.18974	572.30817	-371.50980	53.95729	567.72150	574.90674	208.07327	554.08533	573.84906	
2001	20.000	-90.04062	20.54497	-221.00952	308.42691	60.57685	-247.33228	-44.58364	55.71366	387.69440	286.27817	15.61812	399.69034	91.72815	1168.54944	-643.14941	29.64705	574.15759	-369.36023	188.78336	572.51355	-372.74466	55.36148	567.47839	574.19104	209.46123	553.90662	572.99835	
2002	20.010	-90.00095	20.60767	-221.01590	310.29062	52.87518	-248.26831	-44.48697	48.21464	386.88113	286.46567	15.54251	399.56802	91.41540	1168.51465	-643.78894	30.01750	574.14081	-369.95627	189.26689	572.31104	-373.58829	57.74061	567.96179	575.35706	210.88753	553.78564	572.01849	
2003	20.020	-89.84803	20.70553	-221.07033	311.24936	45.88443	-249.75586	-42.73133	40.50427	385.77441	286.75629	15.44044	399.49396	90.90313	1168.67871	-644.70239	30.30021	574.09241	-370.90509	189.16718	572.18658	-374.38217	59.25066	568.08612	574.28632	212.95438	553.72479	571.31384	
2004	20.030	-89.85597	20.75242	-221.07860	313.32755	39.99366	-250.68073	-42.16702	33.42528	384.01724	286.89209	15.35082	399.33328	90.38587	1168.60010	-645.58435	30.76795	573.96021	-371.90652	190.05815	572.41998	-375.68985	60.74284	567.96411	573.68872	213.53702	553.82526	569.80371	
2005	20.040	-89.72251	20.78160	-220.96820	312.94733	33.13735	-253.01819	-41.29691	27.49795	382.56772	286.93155	15.21920	399.24725	90.58144	1168.56763	-646.46851	30.77817	574.32214	-373.05112	189.53807	572.22113	-376.41901	62.11774	567.72742	572.84235	215.07071	553.71637	568.74908	
2006	20.050	-89.57298	20.81316	-220.97919	314.02853	26.80945	-254.93764	-39.70461	20.81954	380.63934	287.00562	15.09694	399.09067	90.08411	1168.53638	-647.54895	31.41151	574.11115	-373.97556	190.55571	572.72296	-378.00436	63.57085	567.47675	571.31598	216.55983	553.68018	567.43945	
2007	20.060	-89.57899	20.85797	-220.94420	314.64133	21.53013	-257.21820	-38.56127	14.18445	378.12039	287.07513	15.05549	399.07050	89.97427	1168.79419	-648.74628	31.46338	574.35028	-374.98581	190.32693	572.63074	-379.12473	65.16930	567.35602	570.24365	218.12184	553.78149	566.06580	
2008	20.070	-89.36832	20.93937	-220.90240	315.61993	19.04788	-257.75540	-39.06602	12.64149	377.40302	287.13754	14.83853	399.01767	89.76256	1169.06287	-649.98883	31.55790	574.48022	-376.63980	190.88113	573.28998	-381.07864	66.47343	567.58533	569.26257	219.46594	553.80560	564.52869	
2009	20.080	-88.63184	20.60704	-220.83350	315.61789	18.72657	-258.94742	-40.06611	12.72886	376.99536	287.14459	15.10236	398.96042	89.18008	1169.71387	-651.33563	31.83662	574.81744	-377.54044	190.77408	573.13470	-381.96161	68.11671	568.73230	567.63531	220.99701	554.84296	563.04980	
2010	20.090	-89.20349	22.02624	-222.02499	315.44055	18.61939	-258.61472	-39.37521	13.72291	377.75061	287.21329	16.09196	398.43533	89.15988	1170.35852	-653.27380	31.79349	575.71497	-379.06119	191.25264	574.42712	-384.01871	70.22161	570.27417	566.70410	223.01178	556.58057	561.55957	
2011	20.100	-86.52210	25.33374	-221.25729	315.44193	18.43788	-258.95273	-38.53405	13.39755	377.21368	286.89212	19.18596	399.34937	88.55308	1171.04395	-655.42487	31.77489	576.41992	-379.81238	190.54279	575.07837	-385.00119	71.91559	571.71338	565.69366	224.18680	557.96582	560.01483	
2012	20.110	-81.91657	28.58714	-218.40823	315.55756	18.53873	-259.27411	-38.53195	13.53766	377.38730	284.80057	22.80087	402.28641	87.66110	1171.21289	-657.35986	31.49726	577.61884	-380.98456	190.85782	576.27136	-386.54352	72.71584	572.81464	564.16736	225.70398	558.45947	558.68494	
2013	20.120	-77.12763	34.76689	-215.81880	315.48380	18.30956	-259.47491	-38.63624	13.36437	377.20834	281.61530	29.81216	403.54465	87.08076	1171.10461	-658.44214	31.95974	578.03571	-381.96780	190.76843	576.33997	-387.25861	74.03809	573.35144	562.89459	227.29956	559.08832	557.11737	
2014	20.130	-75.51134	43.63388	-215.72630	315.20807	17.97648	-259.70825	-38.54784	13.58994	377.31052	280.78625	38.75185	403.13647	86.23441	1171.27869	-659.39661	31.59191	578.11700	-383.08389	190.73332	577.09668	-389.05505	74.83107	573.97412	561.82300	228.46559	559.82056	556.21362	
2015	20.140	-75.42178	53.98482	-217.25255	315.24112	17.88377	-259.76169	-38.49825	13.54523	377.31989	281.14554	49.66855	400.29282	85.69209	1171.79968	-660.25281	31.69573	578.04004	-384.08270	191.27806	576.98962	-390.14789	75.97687	574.15381	561.03229	229.15710	560.41583	555.05817	
2016	20.150	-76.23419	64.71100	-219.29007	315.45999	17.91008	-259.52786	-38.52099	13.37154	377.35092	284.74387	61.03654	396.96378	85.06107	1172.26501	-661.05658	32.44822	577.53680	-384.78256	191.09550	576.50177	-390.48776	76.25450	574.69379	560.10687	230.04811	560.59119	554.51801	
2017	20.160	-77.57789	76.97948	-222.88618	315.28152	17.76042	-259.48993	-38.52266	13.14017	377.42322	289.73666	73.02990	393.28125	84.50568	1172.09888	-661.65735	32.66553	577.39923	-385.36996	191.69411	576.67261	-391.56210	76.54914	574.05396	559.10913	230.24521	560.27844	553.56189	
2018	20.170	-77.93913	88.59467	-225.98827	315.39459	17.64017	-259.49908	-38.64141	12.56517	377.21298	294.66364	84.44026	389.81104	84.33886	1171.11243	-662.39868	32.99768	577.11615	-386.13525	192.21588	576.46619	-392.47565	76.45647	573.62463	558.76385	230.58359	559.97205	553.01459	
2019	20.180	-77.72558	99.70908	-228.52475	315.56708	17.52963	-259.54126	-38.69908	12.41084	377.22372	298.31110	95.01349	386.01071	84.29082	1170.76709	-662.79047	32.93895	577.14966	-386.99130	191.72672	575.94501	-392.40720	76.76938	573.09766	558.42639	230.43600	559.50653	552.19617	
2020	20.190	-76.68526	110.72224	-231.65912	315.40399	17.32601	-259.65414	-38.70852	12.39081	377.21902	300.83530	105.11038	381.87738	84.81879	1170.38672	-663.42163	32.91262	577.17584	-387.62628	191.45482	575.93573	-393.05658	77.29586	572.78131	557.79779	230.82845	559.23230	551.71838	
2021	20.200	-76.74461	121.35650	-234.08289	315.40149	17.37831	-259.68796	-38.68922	12.60344	377.23981	304.98212	116.46829	378.78754	85.27809	1170.41602	-664.19745	32.78653	576.77466	-387.94211	191.49031	575.79883	-393.47153	77.30501	572.63153	556.93536	231.00754	559.17401	551.38885	
2022	20.210	-76.56300	130.56761	-236.02872	315.50296	17.38038	-259.68448	-38.65275	12.54266	377.20819	204.93309	1098.36121	-226.23323	85.53800	1170.44263	-664.45135	32.78991	576.45581	-388.11819	191.46893	575.70996	-394.00211	77.67590	572.59015	556.63995	231.10390	559.23938	550.75787	
2023	20.220	-76.93024	138.67950	-237.61218	315.54709	17.34954	-259.68164	-38.82400	12.44598	377.21042	306.16125	135.13771	372.68478	85.53378	1170.43933	-664.63538	32.73439	575.69348	-388.60519	191.76816	575.46899	-394.95639	77.74663	572.61792	556.43628	231.00816	559.23798	550.34406	
2024	20.230	-77.42335	145.65233	-238.92690	315.47952	17.35148	-259.64001	-38.90705	12.25156	377.16971	308.09491	142.74123	370.29807	85.08886	1170.22253	-664.99286	32.76229	575.30298	-388.74915	191.79933	574.99719	-395.05643	78.06660	572.94855	556.64856	231.01956	559.24847	550.04053	
2025	20.240	-78.58325	151.20125	-240.07944	315.26572	17.21745	-259.63641	-38.88766	12.25946	377.25171	205.17679	1098.33752	-227.71744	84.56162	1169.77930	-665.24323	32.65538	575.12677	-388.85504	191.62680	574.78577	-395.18747	77.69131	572.80200	556.46216	230.98492	559.35278	549.92828	
2026	20.250	-79.50502	154.67912	-241.08415	315.26434	17.33421	-259.54489	-38.88823	12.24006	377.27496	311.78165	149.99023	366.30310	84.02424	1169.20544	-666.00690	32.71891	575.24023	-389.02893	191.68700	574.79907	-395.27344	77.31989	572.84973	556.15271	230.74120	559.47076	549.98138	
2027	20.260	-80.06580	155.25800	-241.99957	315.27643	17.31322	-259.46213	-38.91662	12.36314	377.28778	314.14435	150.29314	364.96829	83.76192	1168.40808	-666.34271	32.70016	575.27386	-389.16119	191.79985	574.83173	-395.22784	76.85480	572.95001	555.86444	230.59602	559.42944	549.96967	
2028	20.270	-80.64484	152.71960	-242.06595	315.42261	17.43442	-259.37939	-39.01405	12.22290	377.24643	315.49628	147.99686	363.93500	83.56024	1167.67480	-666.74438	32.53358	575.18628	-389.31189	191.82683	574.81842	-395.25433	76.36770	573.04816	555.85657	230.23520	559.49426	549.96100	
2029	20.280	-80.39252	149.63539	-242.55780	315.28680	17.45666	-259.41071	-39.17678	12.04070	377.21899	316.58658	144.80585	362.94104	83.68613	1167.49683	-666.80151	32.38236	575.02820	-389.28210	191.59509	574.66266	-395.21344	76.05509	572.89551	556.12091	230.01717	559.58722	549.96033	
2030	20.290	-79.80279	144.67024	-243.05550	315.24075	17.44658	-259.41385	-39.17111	11.94402	377.29770	317.30045	140.37856	362.05469	83.83792	1167.66089	-666.86902	32.20345	574.90729	-389.24249	191.45222	574.62140	-395.25705	75.52576	572.79968	555.25397	229.95850	559.63800	549.99274	
2031	20.300	-78.59433	139.46774	-244.01329	315.17007	17.43469	-259.42569	-39.16919	11.92761	377.33951	318.68063	135.64513	360.96689	83.94390	1167.84399	-666.89185	32.03996	574.64380	-389.35489	190.85353	574.14050	-394.70877	75.47019	572.84210	555.29669	229.81468	559.73242	550.07855	
